<?xml version="1.0" encoding="UTF-8"?>
<svg width="600px" height="600px" viewBox="0 0 600 600" version="1.1" xmlns="http://www.w3.org/2000/svg" xmlns:xlink="http://www.w3.org/1999/xlink">
    <!-- Generator: Sketch 54.1 (76490) - https://sketchapp.com -->
    <title>Sprite images</title>
    <desc>Ally sprite.</desc>
    
    
    <!-- Disable css -->
    <defs>
        <path d="M22,6.07 L22,4.07 L7.39,4.07 L9.39,6.07 L22,6.07 Z M24,19.07 L24,9.07 C24,8.52 23.55,8.07 23,8.07 L17,8.07 C16.45,8.07 16,8.52 16,9.07 L16,12.68 L18,14.68 L18,10.07 L22,10.07 L22,17.07 L20.39,17.07 L23.32,20 C23.71,19.87 24,19.51 24,19.07 Z M2.06,1.58 L0.65,2.99 L2.47,4.81 C2.18,5.15 2,5.59 2,6.07 L2,17.07 L0,17.07 L0,20.07 L17.73,20.07 L20.08,22.42 L21.49,21.01 L2.06,1.58 Z M4,17.07 L4,6.34 L14.73,17.07 L4,17.07 Z" id="path-1"></path>
    </defs>
    <g id="Page-1" stroke="none" stroke-width="1" fill="none" fill-rule="evenodd" transform="translate(0,0)">
        <g id="Ally_Design_Option" transform="translate(-816.000000, -42.000000)">
            <g id="icon/hardware/phonelink_off_24px" transform="translate(828.000000, 53.000000) rotate(-360.000000) translate(-828.000000, -53.000000) translate(816.000000, 41.000000)">
                <mask id="mask-2" fill="white">
                    <use xlink:href="#path-1"></use>
                </mask>
                <g fill-rule="nonzero"></g>
                <g id="✱-/-Color-/-Icons-/-Selected-/-On-Primary-/-Active-" mask="url(#mask-2)" fill="#FFFFFF" fill-rule="evenodd">
                    <rect id="Rectangle-3" x="0" y="0" width="24" height="24"></rect>
                </g>
            </g>
        </g>
    </g>
    <!-- Disable css -->
    
    
    <!-- Highlight -->
    <defs>
        <path d="M7.49875,16 C8.04875,16 8.49875,16.45 8.49875,17 C8.49875,18.1 7.59875,19 6.49875,19 C6.32875,19 6.16875,18.98 5.99875,18.95 C6.30875,18.4 6.49875,17.74 6.49875,17 C6.49875,16.45 6.94875,16 7.49875,16 L7.49875,16 Z M19.16875,3 C18.90875,3 18.65875,3.1 18.45875,3.29 L9.49875,12.25 L12.24875,15 L21.20875,6.04 C21.59875,5.65 21.59875,5.02 21.20875,4.63 L19.86875,3.29 C19.66875,3.09 19.41875,3 19.16875,3 Z M7.49875,14 C5.83875,14 4.49875,15.34 4.49875,17 C4.49875,18.31 3.33875,19 2.49875,19 C3.41875,20.22 4.98875,21 6.49875,21 C8.70875,21 10.49875,19.21 10.49875,17 C10.49875,15.34 9.15875,14 7.49875,14 Z" id="path-10"></path>
    </defs>
    <g id="Page-10" stroke="none" stroke-width="1" fill="none" fill-rule="evenodd" transform="translate(50, 0)">
        <g id="Ally_Design_Option" transform="translate(-1147.000000, -44.000000)">
            <g id="icon/image/brush_24px" transform="translate(1145.000000, 41.000000)">
                <mask id="mask-12" fill="white">
                    <use xlink:href="#path-10"></use>
                </mask>
                <g fill-rule="nonzero"></g>
                <g id="✱-/-Color-/-Icons-/-Selected-/-On-Primary-/-Active-" mask="url(#mask-12)" fill="#FFFFFF" fill-rule="evenodd">
                    <rect id="Rectangle-3" x="0" y="0" width="24" height="24"></rect>
                </g>
            </g>
        </g>
    </g>
    <!--Highlight -->



    
    
    
    
    <!-- expand_less_24px@3x -->
    <defs>
        <path d="M10.8333333,5.83333333 L9.16666667,5.83333333 L9.16666667,9.16666667 L5.83333333,9.16666667 L5.83333333,10.8333333 L9.16666667,10.8333333 L9.16666667,14.1666667 L10.8333333,14.1666667 L10.8333333,10.8333333 L14.1666667,10.8333333 L14.1666667,9.16666667 L10.8333333,9.16666667 L10.8333333,5.83333333 Z M10,1.66666667 C5.4,1.66666667 1.66666667,5.4 1.66666667,10 C1.66666667,14.6 5.4,18.3333333 10,18.3333333 C14.6,18.3333333 18.3333333,14.6 18.3333333,10 C18.3333333,5.4 14.6,1.66666667 10,1.66666667 Z M10,16.6666667 C6.325,16.6666667 3.33333333,13.675 3.33333333,10 C3.33333333,6.325 6.325,3.33333333 10,3.33333333 C13.675,3.33333333 16.6666667,6.325 16.6666667,10 C16.6666667,13.675 13.675,16.6666667 10,16.6666667 Z" id="path-2"></path>
    </defs>
    <g id="Page-2" stroke="none" stroke-width="1" fill="none" fill-rule="evenodd" transform="translate(100, 0)">
        <g id="Ally_Design_Option" transform="translate(-452.000000, -369.000000)">
            <g id="icon/content/add_circle_outline_24px" transform="translate(451.000000, 368.000000)">
                <mask id="mask-3" fill="white">
                    <use xlink:href="#path-2"></use>
                </mask>
                <g fill-rule="nonzero"></g>
                <g id="✱-/-Color-/-Icons-/-Black-/-Inactive" mask="url(#mask-3)" fill="#000000" fill-opacity="0.54" fill-rule="evenodd">
                    <rect id="Rectangle" x="0" y="0" width="20" height="20"></rect>
                </g>
            </g>
        </g>
    </g>
    <!-- expand_less_24px@3x -->

    
    
    
    <!-- expand more -->
    <defs>
        <path d="M5.83333333,9.16666667 L5.83333333,10.8333333 L14.1666667,10.8333333 L14.1666667,9.16666667 L5.83333333,9.16666667 Z M10,1.66666667 C5.4,1.66666667 1.66666667,5.4 1.66666667,10 C1.66666667,14.6 5.4,18.3333333 10,18.3333333 C14.6,18.3333333 18.3333333,14.6 18.3333333,10 C18.3333333,5.4 14.6,1.66666667 10,1.66666667 Z M10,16.6666667 C6.325,16.6666667 3.33333333,13.675 3.33333333,10 C3.33333333,6.325 6.325,3.33333333 10,3.33333333 C13.675,3.33333333 16.6666667,6.325 16.6666667,10 C16.6666667,13.675 13.675,16.6666667 10,16.6666667 Z" id="path-16"></path>
    </defs>
    <g id="Page-16" stroke="none" stroke-width="1" fill="none" fill-rule="evenodd" transform="translate(130, 0)">
        <g id="Ally_Design_Option" transform="translate(-452.000000, -143.000000)">
            <g id="icon/content/remove_circle_outline_24px" transform="translate(451.000000, 142.000000)">
                <mask id="mask-32" fill="white">
                    <use xlink:href="#path-16"></use>
                </mask>
                <g fill-rule="nonzero"></g>
                <g id="✱-/-Color-/-Icons-/-Black-/-Inactive" mask="url(#mask-32)" fill="#000000" fill-opacity="0.54" fill-rule="evenodd">
                    <rect id="Rectangle" x="0" y="0" width="20" height="20"></rect>
                </g>
            </g>
        </g>
    </g>
    <!-- expand more -->


    <!-- Inspect -->
    <defs>
        <path d="M13,4 L13,6.67 L12,7.67 L11,6.67 L11,4 L13,4 L13,4 Z M20,11 L20,13 L17.33,13 L16.33,12 L17.33,11 L20,11 L20,11 Z M6.67,11 L7.67,12 L6.67,13 L4,13 L4,11 L6.67,11 L6.67,11 Z M12,16.33 L13,17.33 L13,20 L11,20 L11,17.33 L12,16.33 L12,16.33 Z M15,2 L9,2 L9,7.5 L12,10.5 L15,7.5 L15,2 Z M22,9 L16.5,9 L13.5,12 L16.5,15 L22,15 L22,9 Z M7.5,9 L2,9 L2,15 L7.5,15 L10.5,12 L7.5,9 Z M12,13.5 L9,16.5 L9,22 L15,22 L15,16.5 L12,13.5 Z" id="path-26"></path>
    </defs>
    <g id="Page-26" stroke="none" stroke-width="1" fill="none" fill-rule="evenodd" transform="translate(0, 40)">
        <g id="Ally_Design_Option" transform="translate(-987.000000, -43.000000)">
            <g id="icon/hardware/gamepad_24px" transform="translate(997.000000, 53.000000) rotate(-270.000000) translate(-997.000000, -53.000000) translate(985.000000, 41.000000)">
                <mask id="mask-22" fill="white">
                    <use xlink:href="#path-26"></use>
                </mask>
                <g fill-rule="nonzero"></g>
                <g id="✱-/-Color-/-Icons-/-Selected-/-On-Primary-/-Active-" mask="url(#mask-22)" fill="#FFFFFF" fill-rule="evenodd">
                    <rect id="Rectangle-3" x="0" y="0" width="24" height="24"></rect>
                </g>
            </g>
        </g>
    </g>
   
  



 
</svg>